<svg xmlns="http://www.w3.org/2000/svg" viewBox="0 0 841.7 284.4"><defs><style>.cls-1{fill:#ed1f24;}.cls-2{fill:#ee3c96;}.cls-3{fill:#6bc4e8;}.cls-4,.cls-8{fill:#fff;}.cls-5{fill:#98989a;}.cls-6{fill:#ed40a9;}.cls-7{fill:#ea0029;}.cls-8{stroke:#fff;stroke-miterlimit:10;}</style></defs><g id="Layer_2" data-name="Layer 2"><g id="Dark_Mode_Logo" data-name="Dark Mode Logo"><g id="logo"><g id="Bulb"><g id="light_ray" data-name="light ray"><path id="rect5319" class="cls-1" d="M118.22,3.71V25.94a3.71,3.71,0,0,1-3.71,3.7h0a3.7,3.7,0,0,1-3.7-3.7V3.71A3.71,3.71,0,0,1,114.51,0h0A3.71,3.71,0,0,1,118.22,3.71Z"/><path id="rect5337" class="cls-2" d="M60.42,17.68,71.53,36.93A3.7,3.7,0,0,1,70.18,42h0a3.7,3.7,0,0,1-5.06-1.35L54,21.38a3.7,3.7,0,0,1,1.36-5.06h0A3.71,3.71,0,0,1,60.42,17.68Z"/><path id="rect5339" class="cls-3" d="M14.4,57.75,33.65,68.86A3.71,3.71,0,0,1,35,73.92h0A3.7,3.7,0,0,1,30,75.28L10.69,64.16A3.7,3.7,0,0,1,9.34,59.1h0A3.7,3.7,0,0,1,14.4,57.75Z"/><path id="rect5345" class="cls-2" d="M168.76,17.68,157.65,36.93A3.7,3.7,0,0,0,159,42h0a3.71,3.71,0,0,0,5.06-1.35l11.12-19.26a3.71,3.71,0,0,0-1.36-5.06h0A3.71,3.71,0,0,0,168.76,17.68Z"/><path id="rect5347" class="cls-3" d="M214.78,57.75,195.53,68.86a3.7,3.7,0,0,0-1.36,5.06h0a3.7,3.7,0,0,0,5.06,1.36l19.25-11.12a3.7,3.7,0,0,0,1.36-5.06h0A3.7,3.7,0,0,0,214.78,57.75Z"/><path id="rect5349" class="cls-1" d="M225.47,107.15h-14.2a3.7,3.7,0,0,0-3.7,3.7h0a3.71,3.71,0,0,0,3.7,3.71h14.2a3.71,3.71,0,0,0,3.71-3.71h0A3.71,3.71,0,0,0,225.47,107.15Z"/><path id="rect5351" class="cls-1" d="M17.91,107.15H3.71A3.71,3.71,0,0,0,0,110.85H0a3.71,3.71,0,0,0,3.71,3.71h14.2a3.71,3.71,0,0,0,3.7-3.71h0A3.7,3.7,0,0,0,17.91,107.15Z"/></g><g id="light_bulb" data-name="light bulb"><path class="cls-4" d="M117.21,44.31a9.37,9.37,0,0,1,1,0l.27,0h.28c28,.46,52.22,15.77,64.67,41,12.54,25.35,10.21,54.81-6.06,76.85a127.7,127.7,0,0,1-10.12,11.53c-6.45,6.8-13.12,13.82-17.44,23.35-.95,2-1.73,4-2.48,5.91a45.85,45.85,0,0,1-3.62,7.84l-2.28,3.57,2.6,3.34a6.77,6.77,0,0,1,.28,7.92l-2.58,3.27,2.16,3.56c1.48,2.42,1.41,5.74-.14,7.55l-2.92,3.38,2.41,3.76c1.66,2.6,1.57,6.23-.19,7.79l-2.47,2.17.51,3.26a7.35,7.35,0,0,1-1.85,5.48,8.42,8.42,0,0,1-6.73,2.84h-.22l-4.72-.08-1.18,4.57a12,12,0,0,0-.24,1.19c-.24,1.46-.51,2.63-1.61,3.34l0,0,0,0a4.47,4.47,0,0,1-2.42.62H122c-2,0-3.92-.07-5.91-.07l-3.59,0h-2.11c-2.87,0-3-.11-3.73-.58l0,0,0,0c-1.1-.71-1.37-1.88-1.61-3.34a12,12,0,0,0-.24-1.19l-1.19-4.57-4.72.08h-.23A8.35,8.35,0,0,1,91.86,266a7.68,7.68,0,0,1-1.88-5.6l.51-3.26L88,255c-1.76-1.56-1.85-5.19-.2-7.79l2.41-3.76L87.32,240c-1.55-1.81-1.62-5.13-.15-7.55l2.17-3.56-2.58-3.27a6.77,6.77,0,0,1,.27-7.92l2.61-3.34-2.28-3.58a37.54,37.54,0,0,1-3.54-7.61c-2.34-6.23-5.25-14-18.59-28l-1.09-1.15c-8.62-9-20.44-21.41-23.69-44.19A75.71,75.71,0,0,1,57.74,69.92a72.16,72.16,0,0,1,54.57-25.53h.27l.28,0a9.37,9.37,0,0,1,1,0c.46,0,1,0,1.41,0h.53c.44,0,1,0,1.41,0m0-6c-.56,0-1.12,0-1.68,0s-1.11,0-1.67,0a15.19,15.19,0,0,0-1.65.08c-51,.83-84.36,46.68-77.7,92.35,3.68,25.71,17.79,39.56,26.37,48.6,18.46,19.39,15.23,25,21.42,34.7-3.36,4.31-3.69,11-.25,15.32-2.67,4.4-2.72,10.58.72,14.58-3.15,4.92-2.86,11.87,1.28,15.52-.88,5.67,3.26,15.25,14.49,15.25h.34c.28,1.09.4,5.48,4.38,8.07,2.08,1.39,3.49,1.59,7.08,1.59,1.47,0,3.3,0,5.7,0,1.65,0,3.56,0,5.81.07H122a10.37,10.37,0,0,0,5.76-1.63c4-2.59,4.11-7,4.39-8.07h.32c10.53,0,15.49-9,14.5-15.25,4.18-3.68,4.4-10.65,1.29-15.52,3.44-4,3.39-10.18.72-14.58,3.44-4.36,3.11-11-.25-15.32,2.85-4.48,4.2-9.68,6.48-14.44,6.2-13.74,18.28-22.19,26.93-33.83,37-50.16,3.06-126.29-63.33-127.38a15,15,0,0,0-1.64-.08Z"/></g><g id="brain"><path class="cls-3" d="M103.13,80.32c7.5,8.13,6.81,19.09-1.87,26.45,7.17,6,9.68,16.51,4.53,24.68a13,13,0,0,0-10.53.1,10.36,10.36,0,0,0-8.2-1.74c-2.16-8-8.9-11.73-17-9.91a11.29,11.29,0,0,0-1.45-5.71,14.06,14.06,0,0,0,8.61-3.89A10.24,10.24,0,0,0,91,112.44a12,12,0,0,0,6.17,6c.45-1.11.88-2.22,1.34-3.32-5.61-2.4-7.36-11.12-1.31-15.29-.68-1-1.35-2-2-3A12.39,12.39,0,0,0,90,108.74c-3.8,3.09-8.17,2.13-10.5-1.41a9.82,9.82,0,0,0,.81-7.17C85.49,97,86,90.62,83.73,85.82,91,85.63,95.82,81.09,96.06,74A10.37,10.37,0,0,0,103,66.41c-1.13-.29-2.27-.57-3.43-.8-1.39,6.22-9,6.88-13.28,2-.92.78-1.81,1.58-2.69,2.38a12.78,12.78,0,0,0,8.9,4.5c-1.85,15.82-27.44,4.6-22.28-8.1A8.27,8.27,0,0,1,81.3,61.68C98.34,36.47,116.28,62.65,103.13,80.32Zm-36.6-6.61C69,80.1,73.22,83.16,78.82,85.16c5,4,2.84,13.08-4,12.78,3.87,4.43,2.61,8.35-1.49,10.82-8.88,5.22-11.27-2.87-21.83,2.66-6.65-8,.46-19.91,10.29-19.72C56.63,86.2,56.47,74.72,66.53,73.71Zm-1.16,51.56c8.71-3.84,16.14-3.09,18.4,6.11A9.34,9.34,0,0,0,80.1,140c-9.67,6.47-6.68,20.35,5.85,21.61a13,13,0,0,0,8.34,10.1c.49-1.09.86-2.22,1.3-3.33-7.8-3.19-8.85-13.56.45-16-.26-1.16-.51-2.32-.77-3.48A11.62,11.62,0,0,0,86,158c-9.85-1.24-10.87-11.42-1.77-16.17-2.16-9.17,5.09-11,10.81-5.66,10.27-8.62,22.49,8.74,10.42,21.6,14.23,15.38-1.78,34.29-15.44,20.34-10.42,4.2-16.76-1.84-15.35-12.44-10.89,3.11-17.56-5.49-14.35-16.22-10.17-3.2-13.94-12.19-13.47-22C48.23,107.15,72.47,109.32,65.37,125.27Z"/><path class="cls-5" d="M149.76,61.68a8.27,8.27,0,0,1,11.09,4.73c5.17,12.7-20.42,23.9-22.27,8.1a12.78,12.78,0,0,0,8.9-4.5c-.88-.8-1.77-1.6-2.69-2.38-4.25,4.86-11.89,4.2-13.29-2-1.15.23-2.29.51-3.43.8A10.4,10.4,0,0,0,135,74c.23,7.11,5.09,11.65,12.33,11.84-2.23,4.76-1.81,11.1,3.46,14.34a9.77,9.77,0,0,0,.81,7.17c-2.33,3.53-6.69,4.51-10.5,1.41a12.39,12.39,0,0,0-5.23-11.9c-.68,1-1.35,2-2,3,6,4.17,4.3,12.89-1.31,15.29.46,1.1.89,2.21,1.34,3.32a12.05,12.05,0,0,0,6.17-6,10.23,10.23,0,0,0,13.8-2.14,14.06,14.06,0,0,0,8.61,3.89A11.29,11.29,0,0,0,161,119.9c-8.09-1.82-14.84,1.94-17,9.91a10.38,10.38,0,0,0-8.2,1.74,13,13,0,0,0-10.52-.1c-5.16-8.18-2.63-18.67,4.53-24.68-8.69-7.36-9.37-18.32-1.88-26.45-11.67-15.69.82-34.41,12.93-27.74C144.64,54.68,147.38,58.15,149.76,61.68Zm19.52,30c9.82-.19,16.94,11.72,10.28,19.72-2.41-1.26-5.79-3.15-12.13-1.28-7.19,2.15-18.3-4.06-11.18-12.2-6.84.3-9-8.81-4-12.78,5.39-1.93,9.75-4.85,12.29-11.45C174.5,74.71,174.49,86.14,169.28,91.7Zm1.48,57.79c3.21,10.71-3.43,19.34-14.35,16.22,1.4,10.6-5,16.62-15.35,12.44-13.75,14-29.59-5-15.45-20.34-12.08-12.87.15-30.23,10.43-21.6,5.65-5.29,13-3.59,10.81,5.66,9.07,4.73,8.11,14.92-1.77,16.17a11.61,11.61,0,0,0-9.28-9.15c-.26,1.16-.51,2.32-.78,3.48,9.29,2.48,8.27,12.85.46,16,.44,1.11.81,2.24,1.3,3.33a13,13,0,0,0,8.34-10.1c12.54-1.26,15.51-15.14,5.84-21.61a9.32,9.32,0,0,0-3.67-8.65c2.27-9.23,9.7-9.94,18.4-6.11-5.73-12.89,8-15.17,13.85-9.43C186.94,122.93,187,144.38,170.76,149.49Z"/><path class="cls-6" d="M65.47,125.12c8.71-3.84,16.14-3.09,18.4,6.11a9.32,9.32,0,0,0-3.67,8.65c-9.67,6.47-6.69,20.35,5.84,21.61a13,13,0,0,0,8.35,10.1c.48-1.09.86-2.23,1.29-3.33-7.8-3.19-8.84-13.56.46-16-.27-1.16-.52-2.32-.78-3.48a11.61,11.61,0,0,0-9.28,9.15c-9.84-1.24-10.87-11.42-1.77-16.17-2.15-9.17,5.09-11,10.82-5.66,10.26-8.62,22.48,8.74,10.42,21.6C119.77,173.05,103.76,192,90.11,178c-10.42,4.2-16.76-1.84-15.36-12.44-10.89,3.11-17.56-5.49-14.35-16.22-10.17-3.2-13.93-12.18-13.47-22C48.33,107,72.56,109.17,65.47,125.12Z"/><path class="cls-7" d="M170.59,149.34c3.21,10.71-3.43,19.34-14.35,16.22,1.41,10.6-5,16.62-15.35,12.44-13.74,14-29.59-5-15.44-20.34-12.08-12.87.14-30.23,10.42-21.6,5.65-5.29,13-3.59,10.81,5.66,9.07,4.73,8.12,14.92-1.77,16.17a11.61,11.61,0,0,0-9.28-9.15c-.25,1.16-.51,2.32-.77,3.48,9.29,2.48,8.26,12.85.45,16,.44,1.1.81,2.24,1.3,3.33a13,13,0,0,0,8.34-10.1c12.54-1.26,15.52-15.14,5.85-21.61a9.34,9.34,0,0,0-3.67-8.65c2.27-9.23,9.7-9.94,18.4-6.11-5.73-12.89,8-15.17,13.85-9.43C186.77,122.78,186.84,144.23,170.59,149.34Z"/></g></g><g id="outline_text" data-name="outline text"><path class="cls-8" d="M300.75,132.2,274.16,34.73H289l20.93,78.44L331,34.73H345.7L319.11,132.2Z"/><path class="cls-8" d="M362.85,132.2v-61H349.62V58h27V132.2Zm0-84.24V34.73h13.77V48Z"/><path class="cls-8" d="M393.22,132.2V119.1h37c4.05,0,4.86-.8,4.86-4.72v-7.83c0-3.91-.81-4.72-4.86-4.72H405c-10.13,0-14.85-2.3-14.85-14.31V72.26c0-12,4.72-14.31,14.85-14.31H445.6V71.18H408.75c-4.05,0-4.86.81-4.86,4.73V84c0,3.37.67,4.72,3.64,4.72h26.6C444.25,88.73,449,91,449,103v14.85c0,12-4.72,14.31-14.84,14.31Z"/><path class="cls-8" d="M469.09,132.2v-61H455.86V58h27V132.2Zm0-84.24V34.73h13.77V48Z"/><path class="cls-8" d="M513,132.2c-10.13,0-14.85-2.3-14.85-14.31V72.26c0-12,4.72-14.31,14.85-14.31h32.8c10.12,0,14.85,2.3,14.85,14.31v45.63c0,12-4.73,14.31-14.85,14.31Zm33.88-56.29c0-3.92-.81-4.73-4.86-4.73H516.88c-4,0-4.86.81-4.86,4.73v38.47c0,3.92.81,4.72,4.86,4.72H542c4,0,4.86-.8,4.86-4.72Z"/><path class="cls-8" d="M624.47,132.2V75.91c0-3.92-.81-4.73-4.86-4.73H594.5c-4,0-4.86.81-4.86,4.73V132.2h-13.9V72.26c0-12,4.72-14.31,14.85-14.31h32.8c10.13,0,14.85,2.3,14.85,14.31V132.2Z"/><path class="cls-8" d="M667,132.2c-10.13,0-14.85-2.3-14.85-14.31V100.07c0-12,4.72-14.31,14.85-14.31h33.75V75.91c0-3.92-.81-4.73-4.86-4.73H653.63V58H699.8c10.13,0,14.85,2.3,14.85,14.31v45.63c0,12-4.72,14.31-14.85,14.31ZM700.75,99h-30c-4,0-4.86.81-4.86,4.73v10.66c0,3.92.81,4.72,4.86,4.72h25.11c4.05,0,4.86-.8,4.86-4.72Z"/><path class="cls-8" d="M729.64,132.2V72.26c0-12,4.72-14.31,14.85-14.31h30.37V71.18H748.4c-4,0-4.86.81-4.86,4.73V132.2Z"/><path class="cls-8" d="M795.92,159.2l8-26.87L776.89,58H791.6l19,52.79L827.1,58H841L808.07,159.2Z"/><path class="cls-4" d="M246.61,275.2c-10.12,0-14.85-2.3-14.85-14.31V192c0-12,4.73-14.31,14.85-14.31h37.53C294.27,177.73,299,180,299,192v14.72h-9.18V192.31c0-3.91-.81-6.07-6.21-6.07H247.15c-5.4,0-6.21,2.16-6.21,6.07v68.45c0,3.91.81,6.07,6.21,6.07H283.6c5.54,0,6.21-2.16,6.21-6.07V246.18H299v14.71c0,12-4.72,14.31-14.85,14.31Z"/><path class="cls-4" d="M317.76,275.2V215.26c0-12,4.72-14.31,14.85-14.31H363v8.51H333.15c-5.4,0-6.21,2.16-6.21,6.07V275.2Z"/><path class="cls-4" d="M390.93,275.2c-10.13,0-14.85-2.3-14.85-14.31V215.26c0-12,4.72-14.31,14.85-14.31h32.8c10.13,0,14.85,2.3,14.85,14.31v16.88c0,12-4.72,14.31-14.85,14.31H385.26v14.31c0,5.93,2,6.07,13.09,6.07h37.26v8.37Zm38.61-59.67c0-3.91-.81-6.07-6.21-6.07H391.47c-5.4,0-6.21,2.16-6.21,6.07v22.55h38.07c5.4,0,6.21-2.16,6.21-6.08Z"/><path class="cls-4" d="M469.9,275.2c-10.12,0-14.85-2.3-14.85-14.31V243.07c0-12,4.73-14.31,14.85-14.31h38.61V215.53c0-3.91-.81-6.07-6.21-6.07H456.54V201h46.17c10.12,0,14.85,2.3,14.85,14.31v45.63c0,12-4.73,14.31-14.85,14.31Zm38.61-37.93H470.44c-5.4,0-6.21,2.16-6.21,6.07v17.42c0,3.91.81,6.07,6.21,6.07H502.3c5.4,0,6.21-2.16,6.21-6.07Z"/><path class="cls-4" d="M559.14,275.2c-10.13,0-14.85-2.3-14.85-14.31V209.46H532V201h12.29V173.14h9.18V201h20.11v8.51H553.47v51.3c0,3.91.81,6.07,6.21,6.07h13.9v8.37Z"/><path class="cls-4" d="M596.12,275.2V209.46H580.6V201h24.57V275.2Zm0-89v-8.51h9v8.51Z"/><path class="cls-4" d="M644.45,275.2,618.8,201h9.59l21.19,63.18L670.78,201h9.45L654.58,275.2Z"/><path class="cls-4" d="M708.31,275.2c-10.13,0-14.85-2.3-14.85-14.31V215.26c0-12,4.72-14.31,14.85-14.31h32.8c10.13,0,14.85,2.3,14.85,14.31v16.88c0,12-4.72,14.31-14.85,14.31H702.64v14.31c0,5.93,2,6.07,13.09,6.07H753v8.37Zm38.61-59.67c0-3.91-.81-6.07-6.21-6.07H708.85c-5.4,0-6.21,2.16-6.21,6.07v22.55h38.07c5.4,0,6.21-2.16,6.21-6.08Z"/><path class="cls-4" d="M774.86,275.2v-8.37h40.37c5.39,0,6.21-2.16,6.21-6.07V248.2c0-3.91-.82-6.07-6.21-6.07H786.61c-10.13,0-14.85-2.3-14.85-14.31V215.26c0-12,4.72-14.31,14.85-14.31h40.63v8.51H787c-5.4,0-6.21,2.16-6.21,6.07v12.15c0,3.65.81,6.08,5.81,6.08h29.16c10.12,0,14.85,2.29,14.85,14.31v12.82c0,12-4.73,14.31-14.85,14.31Z"/></g></g></g></g></svg>